<svg width="46" height="46" viewBox="0 0 46 46" fill="none" xmlns="http://www.w3.org/2000/svg">
<circle cx="23" cy="23" r="23" fill="#E3E3FD"/>
<path d="M30.1521 19.6961C29.2138 19.6961 28.399 19.4059 27.7077 18.8255C27.0163 18.2453 26.5787 17.5147 26.3948 16.6336H19.579C19.4273 17.3804 19.0851 18.0217 18.5526 18.5576C18.0201 19.0936 17.3804 19.4375 16.6336 19.5892V26.3948C17.5147 26.5787 18.2453 27.0163 18.8255 27.7077C19.4059 28.399 19.6961 29.2138 19.6961 30.1521C19.6961 31.2172 19.3209 32.1248 18.5707 32.8749C17.8206 33.625 16.913 34 15.8479 34C14.7828 34 13.8752 33.625 13.1251 32.8749C12.375 32.1248 12 31.2172 12 30.1521C12 29.2138 12.2901 28.399 12.8703 27.7077C13.4505 27.0163 14.1811 26.5787 15.0622 26.3948V19.5892C14.1811 19.4052 13.4505 18.9683 12.8703 18.2786C12.2901 17.589 12 16.7787 12 15.8479C12 14.7828 12.3758 13.8752 13.1275 13.1251C13.879 12.375 14.7825 12 15.838 12C16.7688 12 17.579 12.2901 18.2687 12.8703C18.9584 13.4505 19.3951 14.1811 19.579 15.0622H26.3948C26.5787 14.1811 27.0163 13.4505 27.7077 12.8703C28.399 12.2901 29.2138 12 30.1521 12C31.2102 12 32.116 12.3768 32.8696 13.1304C33.6232 13.884 34 14.7898 34 15.8479C34 16.913 33.6232 17.8206 32.8696 18.5707C32.116 19.3209 31.2102 19.6961 30.1521 19.6961ZM15.8416 32.4385C16.4758 32.4385 17.0148 32.2122 17.4586 31.7597C17.9026 31.3071 18.1246 30.7733 18.1246 30.1584C18.1246 29.5242 17.9026 28.9852 17.4586 28.5414C17.0148 28.0974 16.4758 27.8754 15.8416 27.8754C15.2267 27.8754 14.6929 28.0974 14.2403 28.5414C13.7878 28.9852 13.5615 29.5242 13.5615 30.1584C13.5615 30.7733 13.7878 31.3071 14.2403 31.7597C14.6929 32.2122 15.2267 32.4385 15.8416 32.4385ZM15.8416 18.1346C16.4758 18.1346 17.0148 17.9106 17.4586 17.4625C17.9026 17.0145 18.1246 16.476 18.1246 15.8469C18.1246 15.2178 17.9026 14.6812 17.4586 14.2372C17.0148 13.7933 16.4758 13.5714 15.8416 13.5714C15.2267 13.5714 14.6929 13.7933 14.2403 14.2372C13.7878 14.6812 13.5615 15.2178 13.5615 15.8469C13.5615 16.476 13.7878 17.0145 14.2403 17.4625C14.6929 17.9106 15.2267 18.1346 15.8416 18.1346ZM30.1521 34C29.087 34 28.1794 33.625 27.4293 32.8749C26.6791 32.1248 26.3039 31.2196 26.3039 30.1594C26.3039 29.0992 26.6791 28.1916 27.4293 27.4364C28.1794 26.6814 29.087 26.3039 30.1521 26.3039C31.2172 26.3039 32.1248 26.6814 32.8749 27.4364C33.625 28.1916 34 29.0992 34 30.1594C34 31.2196 33.625 32.1248 32.8749 32.8749C32.1248 33.625 31.2172 34 30.1521 34ZM30.1531 32.4385C30.7822 32.4385 31.3188 32.2122 31.7628 31.7597C32.2067 31.3071 32.4286 30.7733 32.4286 30.1584C32.4286 29.5242 32.2067 28.9852 31.7628 28.5414C31.3188 28.0974 30.7822 27.8754 30.1531 27.8754C29.524 27.8754 28.9855 28.0974 28.5375 28.5414C28.0894 28.9852 27.8654 29.5242 27.8654 30.1584C27.8654 30.7733 28.0894 31.3071 28.5375 31.7597C28.9855 32.2122 29.524 32.4385 30.1531 32.4385ZM30.1531 18.1346C30.7822 18.1346 31.3188 17.9106 31.7628 17.4625C32.2067 17.0145 32.4286 16.476 32.4286 15.8469C32.4286 15.2178 32.2067 14.6812 31.7628 14.2372C31.3188 13.7933 30.7822 13.5714 30.1531 13.5714C29.524 13.5714 28.9855 13.7933 28.5375 14.2372C28.0894 14.6812 27.8654 15.2178 27.8654 15.8469C27.8654 16.476 28.0894 17.0145 28.5375 17.4625C28.9855 17.9106 29.524 18.1346 30.1531 18.1346Z" fill="#2B2CB7"/>
</svg>
