<svg width="55" height="55" viewBox="0 0 55 55" fill="none" xmlns="http://www.w3.org/2000/svg">
<circle cx="27.5" cy="27.5" r="27.5" fill="#090A80"/>
<path d="M15 39V16H27.3252V21.2571H40V39H15ZM16.9458 37.0286H20.1897V33.7429H16.9458V37.0286ZM16.9458 31.7714H20.1897V28.4857H16.9458V31.7714ZM16.9458 26.5143H20.1897V23.2286H16.9458V26.5143ZM16.9458 21.2571H20.1897V17.9714H16.9458V21.2571ZM22.1355 37.0286H25.3794V33.7429H22.1355V37.0286ZM22.1355 31.7714H25.3794V28.4857H22.1355V31.7714ZM22.1355 26.5143H25.3794V23.2286H22.1355V26.5143ZM22.1355 21.2571H25.3794V17.9714H22.1355V21.2571ZM27.3252 37.0286H38.0542V23.2286H27.3252V26.5143H30.1698V28.4857H27.3252V31.7714H30.1698V33.7429H27.3252V37.0286ZM33.014 28.4857V26.5143H34.9602V28.4857H33.014ZM33.014 33.7429V31.7714H34.9602V33.7429H33.014Z" fill="white"/>
</svg>
